<!DOCTYPE svg PUBLIC "-//W3C//DTD SVG 20010904//EN" "http://www.w3.org/TR/2001/REC-SVG-20010904/DTD/svg10.dtd">
<svg version="1.0" xmlns="http://www.w3.org/2000/svg" width="2019px" height="1110px" viewBox="0 0 12000 6600" preserveAspectRatio="xMidYMid meet">
<g id="layer101" fill="#010101" stroke="none">
<path d="M0 3300 l0 -3300 6000 0 6000 0 0 3300 0 3300 -6000 0 -6000 0 0 -3300z"/>
</g>
<g id="layer102" fill="#3453a5" stroke="none">
<path d="M0 3300 l0 -3300 6000 0 6000 0 0 3300 0 3300 -6000 0 -6000 0 0 -3300z m1280 1586 c85 -15 168 -34 184 -42 16 -8 41 -14 55 -14 14 0 40 -9 56 -20 17 -11 42 -20 58 -20 15 0 27 -4 27 -10 0 -5 12 -13 27 -16 33 -9 258 -120 275 -137 7 -7 31 -24 53 -39 58 -39 174 -146 232 -212 82 -94 193 -293 233 -418 6 -21 16 -40 21 -43 5 -4 9 -21 9 -40 0 -19 4 -36 9 -39 5 -3 11 -20 14 -38 2 -18 11 -71 19 -118 20 -115 23 -140 23 -245 0 -72 -4 -97 -19 -119 -18 -28 -20 -28 -91 -24 -76 5 -142 30 -196 75 -29 25 -29 25 -29 138 0 63 -4 116 -9 119 -5 4 -12 41 -16 84 -3 42 -10 88 -14 102 -5 14 -14 50 -21 80 -18 78 -69 228 -93 269 -11 20 -28 53 -39 73 -11 20 -26 42 -34 49 -8 6 -14 16 -14 21 0 15 -91 126 -147 179 -66 64 -152 129 -169 129 -8 0 -14 4 -14 8 0 20 -156 75 -272 96 -182 33 -304 38 -495 21 -98 -9 -182 -20 -186 -24 -7 -7 61 -231 74 -241 3 -3 9 -20 12 -39 4 -18 24 -81 46 -140 21 -58 69 -198 105 -311 37 -113 75 -225 85 -250 10 -25 23 -61 30 -80 65 -198 184 -549 191 -565 5 -11 12 -31 15 -45 5 -22 20 -62 46 -125 4 -11 13 -38 19 -60 6 -22 15 -49 20 -60 23 -53 111 -342 112 -364 0 -15 -5 -69 -11 -121 -19 -175 -8 -561 18 -595 5 -5 11 -37 14 -71 4 -33 13 -74 22 -90 8 -16 15 -38 15 -50 0 -11 9 -39 20 -62 11 -22 20 -45 20 -50 0 -24 60 -112 76 -112 5 0 28 -18 52 -40 24 -22 52 -40 62 -40 11 0 20 -4 20 -9 0 -4 35 -23 78 -42 72 -31 85 -33 187 -34 102 0 115 2 170 29 33 16 73 39 90 50 46 33 146 139 175 186 11 17 26 3 70 -62 14 -21 28 -38 33 -38 4 0 7 -4 7 -9 0 -11 52 -71 62 -71 4 0 24 -16 45 -35 42 -39 118 -71 203 -87 97 -18 255 11 317 58 49 37 153 145 182 189 31 47 33 51 66 91 14 18 25 39 25 47 0 9 4 18 9 21 5 3 12 18 16 33 3 16 19 55 34 88 63 134 110 555 83 730 -6 39 -14 88 -17 110 -7 47 -69 309 -90 379 -8 26 -15 55 -15 63 0 7 -6 24 -14 36 -8 12 -17 46 -21 75 -4 28 -11 52 -15 52 -5 0 -11 19 -15 42 -4 23 -11 49 -16 58 -5 8 -23 60 -40 115 -44 143 -100 305 -116 335 -7 14 -13 32 -13 41 0 8 -7 24 -15 35 -8 10 -15 26 -15 36 0 9 -19 58 -43 110 -24 51 -57 125 -73 163 -31 77 -129 272 -146 292 -12 14 -39 61 -63 108 -34 67 -183 254 -230 290 -73 55 -102 84 -115 116 -17 39 -6 73 27 88 53 25 925 30 4996 30 l4017 1 0 -95 0 -95 -4047 0 c-5225 0 -4653 3 -4623 -18 54 -37 126 -111 181 -187 32 -44 62 -84 66 -90 87 -108 393 -715 393 -779 0 -6 6 -22 13 -36 7 -14 21 -47 31 -75 10 -27 24 -63 31 -80 7 -16 18 -51 25 -78 7 -26 17 -50 21 -53 5 -3 9 -14 9 -26 0 -11 6 -34 14 -51 7 -18 23 -66 36 -107 12 -41 30 -100 40 -130 11 -30 31 -100 45 -155 15 -55 30 -104 34 -110 5 -5 13 -43 20 -82 7 -40 17 -73 22 -73 5 0 9 -16 9 -35 0 -20 9 -61 19 -93 10 -31 23 -91 27 -132 11 -103 13 -431 2 -452 -4 -9 -11 -59 -15 -109 -3 -51 -12 -105 -20 -119 -7 -14 -13 -40 -13 -58 0 -18 -4 -31 -9 -27 -6 3 -13 -11 -16 -32 -8 -44 -42 -131 -60 -153 -7 -8 -16 -26 -20 -40 -23 -75 -203 -297 -296 -365 -8 -5 -30 -22 -50 -37 -37 -27 -225 -128 -239 -128 -5 0 -21 -5 -37 -12 -15 -6 -34 -10 -40 -9 -7 1 -13 -2 -13 -8 0 -5 -24 -12 -52 -16 -29 -4 -58 -11 -64 -16 -27 -22 -183 -33 -459 -33 -281 0 -421 10 -448 32 -7 6 -33 14 -57 17 -25 4 -52 9 -60 12 -8 4 -17 7 -20 8 -3 1 -18 7 -33 13 -16 7 -31 12 -34 12 -14 0 -195 91 -243 123 -106 68 -224 173 -281 247 -32 41 -58 81 -59 88 0 7 -5 10 -10 7 -6 -3 -10 3 -10 14 0 11 -5 23 -10 26 -13 8 -70 132 -93 200 -40 120 -48 152 -67 275 -23 151 -31 386 -18 550 15 183 14 202 -10 251 -12 25 -22 54 -22 65 0 11 -9 36 -20 57 -11 20 -20 48 -20 62 0 14 -3 25 -8 25 -4 0 -16 30 -26 68 -10 37 -25 81 -32 97 -7 17 -39 109 -70 205 -32 96 -61 177 -65 180 -4 3 -10 26 -14 53 -4 26 -11 47 -16 47 -5 0 -9 6 -9 14 0 8 -5 27 -12 43 -6 15 -12 33 -14 38 -10 41 -147 441 -153 449 -5 6 -12 28 -15 50 -4 21 -12 46 -17 55 -7 13 -46 121 -63 176 -2 6 -6 17 -9 25 -3 8 -35 105 -72 215 -36 110 -69 207 -74 215 -5 9 -12 38 -15 65 -12 83 -15 82 279 119 17 2 131 2 255 1 195 -2 246 -6 380 -29z m1384 -2702 c37 -85 65 -162 62 -169 -3 -8 -23 -23 -45 -35 -55 -28 -132 -26 -196 4 -86 40 -86 34 12 205 48 83 90 151 94 151 3 0 36 -70 73 -156z m-529 97 c218 -107 297 -364 179 -580 -76 -141 -253 -229 -408 -203 -135 22 -247 105 -308 229 -31 64 -33 73 -33 178 0 103 2 114 31 176 53 112 128 178 249 222 80 28 207 19 290 -22z m1008 -184 c93 -55 132 -127 125 -228 -13 -180 -228 -253 -386 -132 -74 56 -104 190 -62 272 23 45 82 97 125 111 53 17 149 5 198 -23z"/>
</g>
<g id="layer103" fill="#ad3f96" stroke="none">
<path d="M0 3300 l0 -3300 6000 0 6000 0 0 3300 0 3300 -6000 0 -6000 0 0 -3300z m1280 1586 c85 -15 168 -34 184 -42 16 -8 41 -14 55 -14 14 0 40 -9 56 -20 17 -11 42 -20 58 -20 15 0 27 -4 27 -10 0 -5 12 -13 27 -16 33 -9 258 -120 275 -137 7 -7 31 -24 53 -39 58 -39 174 -146 232 -212 82 -94 193 -293 233 -418 6 -21 16 -40 21 -43 5 -4 9 -21 9 -40 0 -19 4 -36 9 -39 5 -3 11 -20 14 -38 2 -18 11 -71 19 -118 20 -115 23 -140 23 -245 0 -72 -4 -97 -19 -119 -18 -28 -20 -28 -91 -24 -76 5 -142 30 -196 75 -29 25 -29 25 -29 138 0 63 -4 116 -9 119 -5 4 -12 41 -16 84 -3 42 -10 88 -14 102 -5 14 -14 50 -21 80 -18 78 -69 228 -93 269 -11 20 -28 53 -39 73 -11 20 -26 42 -34 49 -8 6 -14 16 -14 21 0 15 -91 126 -147 179 -66 64 -152 129 -169 129 -8 0 -14 4 -14 8 0 20 -156 75 -272 96 -182 33 -304 38 -495 21 -98 -9 -182 -20 -186 -24 -7 -7 61 -231 74 -241 3 -3 9 -20 12 -39 4 -18 24 -81 46 -140 21 -58 69 -198 105 -311 37 -113 75 -225 85 -250 10 -25 23 -61 30 -80 65 -198 184 -549 191 -565 5 -11 12 -31 15 -45 5 -22 20 -62 46 -125 4 -11 13 -38 19 -60 6 -22 15 -49 20 -60 23 -53 111 -342 112 -364 0 -15 -5 -69 -11 -121 -19 -175 -8 -561 18 -595 5 -5 11 -37 14 -71 4 -33 13 -74 22 -90 8 -16 15 -38 15 -50 0 -11 9 -39 20 -62 11 -22 20 -45 20 -50 0 -24 60 -112 76 -112 5 0 28 -18 52 -40 24 -22 52 -40 62 -40 11 0 20 -4 20 -9 0 -4 35 -23 78 -42 72 -31 85 -33 187 -34 102 0 115 2 170 29 33 16 73 39 90 50 46 33 146 139 175 186 11 17 26 3 70 -62 14 -21 28 -38 33 -38 4 0 7 -4 7 -9 0 -11 52 -71 62 -71 4 0 24 -16 45 -35 42 -39 118 -71 203 -87 97 -18 255 11 317 58 49 37 153 145 182 189 31 47 33 51 66 91 14 18 25 39 25 47 0 9 4 18 9 21 5 3 12 18 16 33 3 16 19 55 34 88 63 134 110 555 83 730 -6 39 -14 88 -17 110 -7 47 -69 309 -90 379 -8 26 -15 55 -15 63 0 7 -6 24 -14 36 -8 12 -17 46 -21 75 -4 28 -11 52 -15 52 -5 0 -11 19 -15 42 -4 23 -11 49 -16 58 -5 8 -23 60 -40 115 -44 143 -100 305 -116 335 -7 14 -13 32 -13 41 0 8 -7 24 -15 35 -8 10 -15 26 -15 36 0 9 -19 58 -43 110 -24 51 -57 125 -73 163 -31 77 -129 272 -146 292 -12 14 -39 61 -63 108 -34 67 -183 254 -230 290 -73 55 -102 84 -115 116 -17 39 -6 73 27 88 53 25 925 30 4996 30 l4017 1 0 -95 0 -95 -4047 0 c-5225 0 -4653 3 -4623 -18 54 -37 126 -111 181 -187 32 -44 62 -84 66 -90 87 -108 393 -715 393 -779 0 -6 6 -22 13 -36 7 -14 21 -47 31 -75 10 -27 24 -63 31 -80 7 -16 18 -51 25 -78 7 -26 17 -50 21 -53 5 -3 9 -14 9 -26 0 -11 6 -34 14 -51 7 -18 23 -66 36 -107 12 -41 30 -100 40 -130 11 -30 31 -100 45 -155 15 -55 30 -104 34 -110 5 -5 13 -43 20 -82 7 -40 17 -73 22 -73 5 0 9 -16 9 -35 0 -20 9 -61 19 -93 10 -31 23 -91 27 -132 11 -103 13 -431 2 -452 -4 -9 -11 -59 -15 -109 -3 -51 -12 -105 -20 -119 -7 -14 -13 -40 -13 -58 0 -18 -4 -31 -9 -27 -6 3 -13 -11 -16 -32 -8 -44 -42 -131 -60 -153 -7 -8 -16 -26 -20 -40 -23 -75 -203 -297 -296 -365 -8 -5 -30 -22 -50 -37 -37 -27 -225 -128 -239 -128 -5 0 -21 -5 -37 -12 -15 -6 -34 -10 -40 -9 -7 1 -13 -2 -13 -8 0 -5 -24 -12 -52 -16 -29 -4 -58 -11 -64 -16 -27 -22 -183 -33 -459 -33 -281 0 -421 10 -448 32 -7 6 -33 14 -57 17 -25 4 -52 9 -60 12 -8 4 -17 7 -20 8 -3 1 -18 7 -33 13 -16 7 -31 12 -34 12 -14 0 -195 91 -243 123 -106 68 -224 173 -281 247 -32 41 -58 81 -59 88 0 7 -5 10 -10 7 -6 -3 -10 3 -10 14 0 11 -5 23 -10 26 -13 8 -70 132 -93 200 -40 120 -48 152 -67 275 -23 151 -31 386 -18 550 15 183 14 202 -10 251 -12 25 -22 54 -22 65 0 11 -9 36 -20 57 -11 20 -20 48 -20 62 0 14 -3 25 -8 25 -4 0 -16 30 -26 68 -10 37 -25 81 -32 97 -7 17 -39 109 -70 205 -32 96 -61 177 -65 180 -4 3 -10 26 -14 53 -4 26 -11 47 -16 47 -5 0 -9 6 -9 14 0 8 -5 27 -12 43 -6 15 -12 33 -14 38 -10 41 -147 441 -153 449 -5 6 -12 28 -15 50 -4 21 -12 46 -17 55 -7 13 -46 121 -63 176 -2 6 -6 17 -9 25 -3 8 -35 105 -72 215 -36 110 -69 207 -74 215 -5 9 -12 38 -15 65 -12 83 -15 82 279 119 17 2 131 2 255 1 195 -2 246 -6 380 -29z m9930 -456 l0 -100 -362 0 c-495 0 -466 18 -467 -297 l-1 -203 495 0 495 0 0 -100 0 -100 -495 0 -495 0 0 -582 c0 -627 -1 -612 53 -652 27 -20 41 -21 398 -24 l369 -3 0 -104 0 -105 -352 0 c-194 0 -379 4 -412 10 -54 9 -133 40 -164 65 -37 29 -59 55 -77 88 -11 20 -23 37 -27 37 -8 0 -13 466 -13 1320 0 593 1 617 20 662 11 27 26 48 33 48 6 0 12 8 12 18 1 21 80 76 147 102 44 18 80 19 446 20 l397 0 0 -100z m-2182 -261 l-6 -350 112 6 c122 8 419 -10 424 -25 2 -5 10 -6 18 -3 18 7 154 -26 154 -38 0 -4 6 -6 14 -3 7 3 20 -2 29 -10 8 -8 27 -17 42 -20 15 -3 38 -15 51 -27 13 -13 24 -19 24 -14 0 18 70 -90 75 -117 4 -15 10 -28 13 -28 14 0 17 -85 17 -485 0 -390 -3 -454 -20 -500 -19 -51 -61 -128 -72 -132 -7 -3 -13 -10 -13 -17 0 -13 -81 -96 -94 -96 -5 0 -29 -17 -55 -38 -25 -21 -75 -51 -111 -66 -127 -54 -160 -58 -512 -63 l-328 -5 0 778 c0 429 3 965 7 1192 l6 412 115 0 115 0 -5 -351z m-4548 -29 l0 -350 453 0 452 0 0 67 c0 38 1 195 3 351 l2 282 114 0 115 0 -6 -937 c-4 -778 -7 -947 -19 -993 -20 -73 -35 -110 -45 -110 -4 0 -11 -9 -14 -20 -8 -25 -102 -119 -170 -171 -71 -53 -158 -94 -242 -113 -106 -24 -317 -22 -409 3 -103 29 -219 86 -237 117 -4 8 -12 14 -17 14 -13 0 -100 86 -100 98 0 5 -7 12 -15 16 -8 3 -15 12 -15 19 0 8 -9 24 -20 37 -22 26 -48 109 -61 195 -5 33 -9 462 -9 953 l0 892 120 0 120 0 0 -350z m2205 322 c93 -32 135 -51 135 -62 0 -6 5 -10 11 -10 18 0 123 -86 165 -135 21 -25 49 -57 62 -72 12 -14 22 -34 22 -44 0 -10 4 -20 9 -23 5 -3 16 -34 25 -68 14 -51 16 -100 14 -253 l-3 -190 -440 0 -440 0 0 95 0 95 324 3 324 2 -7 68 c-10 105 -11 107 -18 112 -4 3 -13 28 -20 55 -7 28 -21 59 -30 69 -10 11 -18 26 -18 33 0 7 -4 13 -10 13 -5 0 -10 5 -10 12 0 34 -116 101 -205 117 -189 35 -359 -11 -477 -129 -61 -61 -108 -145 -108 -192 0 -16 -4 -28 -8 -28 -5 0 -10 -279 -11 -620 -2 -381 1 -620 7 -620 5 0 12 -17 15 -37 10 -66 17 -88 27 -91 5 -2 10 -10 10 -18 0 -8 5 -14 10 -14 6 0 10 -5 10 -11 0 -14 74 -89 88 -89 7 0 12 -4 12 -9 0 -16 87 -61 152 -77 47 -12 91 -15 178 -11 150 6 196 23 275 102 52 52 64 72 87 140 45 137 53 195 51 408 l-2 197 114 0 115 0 0 -278 c0 -306 -8 -360 -65 -458 -33 -57 -142 -174 -162 -174 -7 0 -13 -4 -13 -8 0 -11 -128 -79 -197 -104 -80 -29 -334 -37 -441 -14 -88 18 -223 83 -275 130 -20 19 -43 39 -50 43 -8 4 -31 32 -52 61 -22 28 -43 52 -47 52 -4 0 -8 8 -8 19 0 10 -7 24 -15 31 -8 7 -17 28 -20 49 -4 20 -12 47 -18 60 -16 33 -11 1332 5 1406 21 98 56 180 95 225 32 37 73 77 108 105 21 17 45 38 54 48 8 9 21 17 28 17 7 0 13 3 13 8 0 13 117 60 195 78 92 21 351 13 430 -14z m835 -322 l0 -350 453 0 454 0 6 137 c4 75 7 232 7 350 l0 213 114 0 114 0 -4 -917 c-5 -868 -10 -1043 -34 -1043 -4 0 -11 -16 -14 -35 -4 -19 -10 -35 -14 -35 -4 0 -20 -20 -35 -45 -74 -116 -245 -232 -398 -269 -99 -24 -313 -22 -415 5 -86 22 -210 82 -227 110 -6 9 -16 15 -22 13 -6 -3 -17 7 -23 21 -7 14 -16 24 -21 20 -5 -3 -12 4 -16 15 -3 11 -12 20 -18 20 -15 0 -97 128 -97 151 0 9 -7 22 -15 29 -8 7 -15 22 -16 34 -1 11 -3 450 -6 974 l-4 952 116 0 115 0 0 -350z m-4856 -1956 c37 -85 65 -162 62 -169 -3 -8 -23 -23 -45 -35 -55 -28 -132 -26 -196 4 -86 40 -86 34 12 205 48 83 90 151 94 151 3 0 36 -70 73 -156z m-529 97 c218 -107 297 -364 179 -580 -76 -141 -253 -229 -408 -203 -135 22 -247 105 -308 229 -31 64 -33 73 -33 178 0 103 2 114 31 176 53 112 128 178 249 222 80 28 207 19 290 -22z m1008 -184 c93 -55 132 -127 125 -228 -13 -180 -228 -253 -386 -132 -74 56 -104 190 -62 272 23 45 82 97 125 111 53 17 149 5 198 -23z"/>
</g>
<g id="layer104" fill="#ffffff" stroke="none">
<path d="M0 3300 l0 -3300 6000 0 6000 0 0 3300 0 3300 -6000 0 -6000 0 0 -3300z m2530 2065 l0 -325 -40 0 -40 0 0 325 0 325 40 0 40 0 0 -325z m150 20 c0 -349 -11 -318 102 -289 136 35 236 105 257 179 6 23 11 122 11 228 l0 187 35 0 35 0 0 -325 0 -325 -35 0 -35 0 0 66 0 66 -22 -16 c-33 -23 -135 -71 -193 -91 -27 -9 -89 -19 -137 -22 l-88 -6 0 327 0 326 35 0 35 0 0 -305z m790 0 l0 -305 100 0 c93 0 100 -1 100 -20 0 -19 -7 -20 -235 -20 -228 0 -235 1 -235 20 0 19 7 20 100 20 l100 0 0 305 0 305 35 0 35 0 0 -305z m700 285 c0 -19 -7 -20 -162 -20 -90 0 -173 -3 -185 -6 -21 -6 -23 -12 -23 -80 l0 -74 220 0 c213 0 220 -1 220 -20 0 -19 -7 -20 -220 -20 l-220 0 0 -173 c0 -121 4 -177 12 -185 8 -8 64 -12 185 -12 166 0 173 -1 173 -20 0 -19 -7 -20 -180 -20 -192 0 -238 9 -259 48 -7 13 -11 114 -11 281 0 256 0 261 22 281 13 11 34 23 48 26 14 3 30 7 35 9 6 2 85 4 178 4 161 1 167 0 167 -19z m582 -7 c101 -39 138 -85 138 -168 l0 -45 -185 0 c-178 0 -185 1 -185 20 0 19 7 20 145 20 144 0 145 0 145 23 0 36 -34 90 -71 110 -22 13 -62 21 -116 25 -99 6 -172 -14 -220 -61 l-33 -31 0 -191 c0 -220 1 -223 87 -261 43 -20 70 -24 144 -24 151 0 199 39 207 168 l5 73 36 -3 36 -3 3 -68 c4 -89 -16 -122 -100 -168 -62 -34 -64 -34 -193 -34 -128 0 -131 1 -198 34 -97 49 -97 50 -97 289 0 187 1 201 21 226 26 33 108 76 168 87 66 12 213 2 263 -18z m258 -73 l0 -100 133 0 c191 1 227 23 227 143 l0 57 36 0 36 0 -3 -80 c-4 -85 -10 -96 -74 -125 l-30 -13 27 -11 c15 -6 38 -21 50 -33 22 -22 23 -31 23 -150 l0 -126 -33 -32 c-65 -62 -108 -73 -294 -78 l-168 -4 0 326 0 326 35 0 35 0 0 -100z m550 0 l0 -100 225 0 225 0 0 100 0 100 35 0 36 0 -3 -269 c-3 -310 1 -294 -107 -348 -53 -26 -64 -28 -186 -27 -145 0 -187 12 -255 74 l-35 31 -3 270 -3 269 36 0 35 0 0 -100z m860 -205 l0 -305 100 0 c93 0 100 -1 100 -20 0 -19 -7 -20 -235 -20 -228 0 -235 1 -235 20 0 19 7 20 100 20 l100 0 0 305 0 305 35 0 35 0 0 -305z m690 285 c0 -19 -7 -20 -157 -20 -87 0 -168 -3 -180 -6 -21 -6 -23 -12 -23 -80 l0 -74 220 0 c213 0 220 -1 220 -20 0 -19 -7 -20 -220 -20 l-220 0 0 -173 c0 -121 4 -177 12 -185 8 -8 63 -12 180 -12 163 0 168 -1 168 -21 0 -20 -4 -20 -189 -17 -175 3 -192 5 -218 24 l-28 21 -3 271 c-2 269 -2 271 20 292 35 32 71 38 251 39 161 1 167 0 167 -19z m600 -10 c30 -13 70 -37 88 -54 l32 -30 0 -203 c0 -163 -3 -210 -15 -233 -9 -17 -20 -30 -25 -30 -5 0 -15 -6 -22 -13 -7 -8 -41 -24 -76 -35 -55 -20 -83 -22 -252 -22 l-190 0 0 326 0 326 203 -4 c184 -4 207 -6 257 -28z m1447 6 c62 -22 110 -57 127 -94 21 -43 22 -42 -21 -42 -33 0 -40 5 -53 33 -48 102 -300 118 -397 24 l-33 -31 0 -191 c0 -220 1 -223 87 -261 43 -20 70 -24 144 -24 151 0 199 39 207 168 l5 73 36 -3 36 -3 3 -68 c4 -89 -16 -122 -100 -168 -62 -34 -64 -34 -193 -34 -128 0 -131 1 -198 34 -97 49 -97 50 -97 289 0 187 1 201 21 226 26 33 108 76 168 87 62 11 208 3 258 -15z m713 4 c0 -19 -7 -20 -201 -20 -119 0 -208 -4 -220 -10 -18 -10 -19 -24 -19 -305 l0 -295 -40 0 -40 0 0 295 c0 380 -24 353 313 354 201 1 207 0 207 -19z m130 -305 l0 -325 -35 0 -35 0 0 325 0 325 35 0 35 0 0 -325z m150 20 c0 -349 -11 -317 102 -289 84 21 178 68 216 107 44 47 52 91 52 300 l0 187 35 0 35 0 0 -325 0 -325 -35 0 -34 0 -3 65 -3 66 -35 -26 c-72 -54 -193 -93 -312 -102 l-88 -6 0 327 0 326 35 0 35 0 0 -305z m610 -20 l0 -325 -40 0 -40 0 0 325 0 325 40 0 40 0 0 -325z m537 290 c60 -27 113 -77 113 -106 0 -15 -7 -19 -40 -19 -32 0 -40 4 -40 18 0 28 -50 69 -108 88 -103 33 -264 2 -306 -58 -13 -18 -16 -57 -16 -215 0 -186 1 -193 23 -219 36 -42 108 -64 210 -64 93 0 135 13 168 54 21 24 40 106 36 151 -2 28 1 30 36 33 l37 3 0 -80 c0 -71 -3 -83 -25 -110 -14 -16 -52 -43 -83 -58 -53 -26 -65 -28 -182 -28 -132 0 -183 12 -239 56 -58 46 -61 59 -61 257 0 203 5 223 62 264 75 55 139 69 272 62 67 -3 103 -10 143 -29z m-10017 -769 c85 -15 168 -34 184 -42 16 -8 41 -14 55 -14 14 0 40 -9 56 -20 17 -11 42 -20 58 -20 15 0 27 -4 27 -10 0 -5 12 -13 27 -16 33 -9 258 -120 275 -137 7 -7 31 -24 53 -39 58 -39 174 -146 232 -212 82 -94 193 -293 233 -418 6 -21 16 -40 21 -43 5 -4 9 -21 9 -40 0 -19 4 -36 9 -39 5 -3 11 -20 14 -38 2 -18 11 -71 19 -118 20 -115 23 -140 23 -245 0 -72 -4 -97 -19 -119 -18 -28 -20 -28 -91 -24 -76 5 -142 30 -196 75 -29 25 -29 25 -29 138 0 63 -4 116 -9 119 -5 4 -12 41 -16 84 -3 42 -10 88 -14 102 -5 14 -14 50 -21 80 -18 78 -69 228 -93 269 -11 20 -28 53 -39 73 -11 20 -26 42 -34 49 -8 6 -14 16 -14 21 0 15 -91 126 -147 179 -66 64 -152 129 -169 129 -8 0 -14 4 -14 8 0 20 -156 75 -272 96 -182 33 -304 38 -495 21 -98 -9 -182 -20 -186 -24 -7 -7 61 -231 74 -241 3 -3 9 -20 12 -39 4 -18 24 -81 46 -140 21 -58 69 -198 105 -311 37 -113 75 -225 85 -250 10 -25 23 -61 30 -80 65 -198 184 -549 191 -565 5 -11 12 -31 15 -45 5 -22 20 -62 46 -125 4 -11 13 -38 19 -60 6 -22 15 -49 20 -60 23 -53 111 -342 112 -364 0 -15 -5 -69 -11 -121 -19 -175 -8 -561 18 -595 5 -5 11 -37 14 -71 4 -33 13 -74 22 -90 8 -16 15 -38 15 -50 0 -11 9 -39 20 -62 11 -22 20 -45 20 -50 0 -24 60 -112 76 -112 5 0 28 -18 52 -40 24 -22 52 -40 62 -40 11 0 20 -4 20 -9 0 -4 35 -23 78 -42 72 -31 85 -33 187 -34 102 0 115 2 170 29 33 16 73 39 90 50 46 33 146 139 175 186 11 17 26 3 70 -62 14 -21 28 -38 33 -38 4 0 7 -4 7 -9 0 -11 52 -71 62 -71 4 0 24 -16 45 -35 42 -39 118 -71 203 -87 97 -18 255 11 317 58 49 37 153 145 182 189 31 47 33 51 66 91 14 18 25 39 25 47 0 9 4 18 9 21 5 3 12 18 16 33 3 16 19 55 34 88 63 134 110 555 83 730 -6 39 -14 88 -17 110 -7 47 -69 309 -90 379 -8 26 -15 55 -15 63 0 7 -6 24 -14 36 -8 12 -17 46 -21 75 -4 28 -11 52 -15 52 -5 0 -11 19 -15 42 -4 23 -11 49 -16 58 -5 8 -23 60 -40 115 -44 143 -100 305 -116 335 -7 14 -13 32 -13 41 0 8 -7 24 -15 35 -8 10 -15 26 -15 36 0 9 -19 58 -43 110 -24 51 -57 125 -73 163 -31 77 -129 272 -146 292 -12 14 -39 61 -63 108 -34 67 -183 254 -230 290 -73 55 -102 84 -115 116 -17 39 -6 73 27 88 53 25 925 30 4996 30 l4017 1 0 -95 0 -95 -4047 0 c-5225 0 -4653 3 -4623 -18 54 -37 126 -111 181 -187 32 -44 62 -84 66 -90 87 -108 393 -715 393 -779 0 -6 6 -22 13 -36 7 -14 21 -47 31 -75 10 -27 24 -63 31 -80 7 -16 18 -51 25 -78 7 -26 17 -50 21 -53 5 -3 9 -14 9 -26 0 -11 6 -34 14 -51 7 -18 23 -66 36 -107 12 -41 30 -100 40 -130 11 -30 31 -100 45 -155 15 -55 30 -104 34 -110 5 -5 13 -43 20 -82 7 -40 17 -73 22 -73 5 0 9 -16 9 -35 0 -20 9 -61 19 -93 10 -31 23 -91 27 -132 11 -103 13 -431 2 -452 -4 -9 -11 -59 -15 -109 -3 -51 -12 -105 -20 -119 -7 -14 -13 -40 -13 -58 0 -18 -4 -31 -9 -27 -6 3 -13 -11 -16 -32 -8 -44 -42 -131 -60 -153 -7 -8 -16 -26 -20 -40 -23 -75 -203 -297 -296 -365 -8 -5 -30 -22 -50 -37 -37 -27 -225 -128 -239 -128 -5 0 -21 -5 -37 -12 -15 -6 -34 -10 -40 -9 -7 1 -13 -2 -13 -8 0 -5 -24 -12 -52 -16 -29 -4 -58 -11 -64 -16 -27 -22 -183 -33 -459 -33 -281 0 -421 10 -448 32 -7 6 -33 14 -57 17 -25 4 -52 9 -60 12 -8 4 -17 7 -20 8 -3 1 -18 7 -33 13 -16 7 -31 12 -34 12 -14 0 -195 91 -243 123 -106 68 -224 173 -281 247 -32 41 -58 81 -59 88 0 7 -5 10 -10 7 -6 -3 -10 3 -10 14 0 11 -5 23 -10 26 -13 8 -70 132 -93 200 -40 120 -48 152 -67 275 -23 151 -31 386 -18 550 15 183 14 202 -10 251 -12 25 -22 54 -22 65 0 11 -9 36 -20 57 -11 20 -20 48 -20 62 0 14 -3 25 -8 25 -4 0 -16 30 -26 68 -10 37 -25 81 -32 97 -7 17 -39 109 -70 205 -32 96 -61 177 -65 180 -4 3 -10 26 -14 53 -4 26 -11 47 -16 47 -5 0 -9 6 -9 14 0 8 -5 27 -12 43 -6 15 -12 33 -14 38 -10 41 -147 441 -153 449 -5 6 -12 28 -15 50 -4 21 -12 46 -17 55 -7 13 -46 121 -63 176 -2 6 -6 17 -9 25 -3 8 -35 105 -72 215 -36 110 -69 207 -74 215 -5 9 -12 38 -15 65 -12 83 -15 82 279 119 17 2 131 2 255 1 195 -2 246 -6 380 -29z m9930 -456 l0 -100 -362 0 c-495 0 -466 18 -467 -297 l-1 -203 495 0 495 0 0 -100 0 -100 -495 0 -495 0 0 -582 c0 -627 -1 -612 53 -652 27 -20 41 -21 398 -24 l369 -3 0 -104 0 -105 -352 0 c-194 0 -379 4 -412 10 -54 9 -133 40 -164 65 -37 29 -59 55 -77 88 -11 20 -23 37 -27 37 -8 0 -13 466 -13 1320 0 593 1 617 20 662 11 27 26 48 33 48 6 0 12 8 12 18 1 21 80 76 147 102 44 18 80 19 446 20 l397 0 0 -100z m-2182 -261 l-6 -350 112 6 c122 8 419 -10 424 -25 2 -5 10 -6 18 -3 18 7 154 -26 154 -38 0 -4 6 -6 14 -3 7 3 20 -2 29 -10 8 -8 27 -17 42 -20 15 -3 38 -15 51 -27 13 -13 24 -19 24 -14 0 18 70 -90 75 -117 4 -15 10 -28 13 -28 14 0 17 -85 17 -485 0 -390 -3 -454 -20 -500 -19 -51 -61 -128 -72 -132 -7 -3 -13 -10 -13 -17 0 -13 -81 -96 -94 -96 -5 0 -29 -17 -55 -38 -25 -21 -75 -51 -111 -66 -127 -54 -160 -58 -512 -63 l-328 -5 0 778 c0 429 3 965 7 1192 l6 412 115 0 115 0 -5 -351z m-4548 -29 l0 -350 453 0 452 0 0 67 c0 38 1 195 3 351 l2 282 114 0 115 0 -6 -937 c-4 -778 -7 -947 -19 -993 -20 -73 -35 -110 -45 -110 -4 0 -11 -9 -14 -20 -8 -25 -102 -119 -170 -171 -71 -53 -158 -94 -242 -113 -106 -24 -317 -22 -409 3 -103 29 -219 86 -237 117 -4 8 -12 14 -17 14 -13 0 -100 86 -100 98 0 5 -7 12 -15 16 -8 3 -15 12 -15 19 0 8 -9 24 -20 37 -22 26 -48 109 -61 195 -5 33 -9 462 -9 953 l0 892 120 0 120 0 0 -350z m2205 322 c93 -32 135 -51 135 -62 0 -6 5 -10 11 -10 18 0 123 -86 165 -135 21 -25 49 -57 62 -72 12 -14 22 -34 22 -44 0 -10 4 -20 9 -23 5 -3 16 -34 25 -68 14 -51 16 -100 14 -253 l-3 -190 -440 0 -440 0 0 95 0 95 324 3 324 2 -7 68 c-10 105 -11 107 -18 112 -4 3 -13 28 -20 55 -7 28 -21 59 -30 69 -10 11 -18 26 -18 33 0 7 -4 13 -10 13 -5 0 -10 5 -10 12 0 34 -116 101 -205 117 -189 35 -359 -11 -477 -129 -61 -61 -108 -145 -108 -192 0 -16 -4 -28 -8 -28 -5 0 -10 -279 -11 -620 -2 -381 1 -620 7 -620 5 0 12 -17 15 -37 10 -66 17 -88 27 -91 5 -2 10 -10 10 -18 0 -8 5 -14 10 -14 6 0 10 -5 10 -11 0 -14 74 -89 88 -89 7 0 12 -4 12 -9 0 -16 87 -61 152 -77 47 -12 91 -15 178 -11 150 6 196 23 275 102 52 52 64 72 87 140 45 137 53 195 51 408 l-2 197 114 0 115 0 0 -278 c0 -306 -8 -360 -65 -458 -33 -57 -142 -174 -162 -174 -7 0 -13 -4 -13 -8 0 -11 -128 -79 -197 -104 -80 -29 -334 -37 -441 -14 -88 18 -223 83 -275 130 -20 19 -43 39 -50 43 -8 4 -31 32 -52 61 -22 28 -43 52 -47 52 -4 0 -8 8 -8 19 0 10 -7 24 -15 31 -8 7 -17 28 -20 49 -4 20 -12 47 -18 60 -16 33 -11 1332 5 1406 21 98 56 180 95 225 32 37 73 77 108 105 21 17 45 38 54 48 8 9 21 17 28 17 7 0 13 3 13 8 0 13 117 60 195 78 92 21 351 13 430 -14z m835 -322 l0 -350 453 0 454 0 6 137 c4 75 7 232 7 350 l0 213 114 0 114 0 -4 -917 c-5 -868 -10 -1043 -34 -1043 -4 0 -11 -16 -14 -35 -4 -19 -10 -35 -14 -35 -4 0 -20 -20 -35 -45 -74 -116 -245 -232 -398 -269 -99 -24 -313 -22 -415 5 -86 22 -210 82 -227 110 -6 9 -16 15 -22 13 -6 -3 -17 7 -23 21 -7 14 -16 24 -21 20 -5 -3 -12 4 -16 15 -3 11 -12 20 -18 20 -15 0 -97 128 -97 151 0 9 -7 22 -15 29 -8 7 -15 22 -16 34 -1 11 -3 450 -6 974 l-4 952 116 0 115 0 0 -350z m-4856 -1956 c37 -85 65 -162 62 -169 -3 -8 -23 -23 -45 -35 -55 -28 -132 -26 -196 4 -86 40 -86 34 12 205 48 83 90 151 94 151 3 0 36 -70 73 -156z m-529 97 c218 -107 297 -364 179 -580 -76 -141 -253 -229 -408 -203 -135 22 -247 105 -308 229 -31 64 -33 73 -33 178 0 103 2 114 31 176 53 112 128 178 249 222 80 28 207 19 290 -22z m1008 -184 c93 -55 132 -127 125 -228 -13 -180 -228 -253 -386 -132 -74 56 -104 190 -62 272 23 45 82 97 125 111 53 17 149 5 198 -23z"/>
<path d="M5028 5454 c-16 -5 -18 -23 -18 -190 l0 -184 111 0 c98 0 116 3 165 26 73 34 84 58 84 179 0 109 -8 131 -55 151 -33 14 -255 28 -287 18z"/>
<path d="M5560 5320 c0 -159 7 -178 84 -214 46 -22 69 -26 141 -26 72 0 95 4 141 26 77 36 84 55 84 214 l0 130 -225 0 -225 0 0 -130z"/>
<path d="M7320 5366 l0 -286 146 0 c166 0 212 10 260 56 l34 31 0 195 c0 192 0 195 -24 221 -46 49 -88 60 -258 65 l-158 4 0 -286z"/>
<path d="M9020 2986 l0 -646 164 0 c90 0 188 4 217 10 135 25 279 132 337 250 l27 55 3 374 3 374 -26 53 c-22 45 -47 72 -112 124 -6 5 -24 12 -40 16 -15 4 -34 12 -42 18 -9 7 -103 12 -273 14 l-258 4 0 -646z"/>
<path d="M4474 3584 c3 -9 6 -229 6 -489 0 -416 2 -475 16 -489 8 -9 16 -26 17 -38 2 -25 102 -138 123 -138 8 0 14 -4 14 -10 0 -16 82 -58 146 -74 121 -31 278 -14 372 40 23 14 42 29 42 34 0 6 6 10 13 10 22 1 105 93 134 150 l28 55 2 483 1 482 -460 0 c-415 0 -460 -2 -454 -16z"/>
<path d="M7522 3113 c3 -480 3 -489 25 -534 12 -25 31 -54 43 -64 11 -10 20 -24 20 -31 0 -7 8 -15 18 -18 9 -3 33 -21 52 -39 61 -57 151 -90 262 -95 109 -5 162 5 253 48 57 26 155 103 155 121 0 9 42 74 62 99 10 11 14 129 16 507 l4 493 -457 0 -456 0 3 -487z"/>
<path d="M1869 2266 c-99 -27 -192 -105 -239 -201 -35 -73 -40 -208 -10 -287 30 -80 104 -159 188 -200 60 -30 75 -33 157 -33 76 0 99 4 147 27 79 37 142 98 181 177 29 60 32 74 32 161 0 82 -4 103 -26 151 -78 165 -258 252 -430 205z m265 -100 c152 -64 205 -270 99 -387 -51 -56 -81 -69 -161 -69 -62 0 -75 4 -118 33 -165 110 -156 343 16 424 35 16 124 16 164 -1z"/>
<path d="M2150 1930 c-24 -24 -25 -38 -4 -68 30 -44 94 -18 94 38 0 48 -54 66 -90 30z"/>
<path d="M2870 1900 c-23 -23 -24 -33 -10 -60 18 -34 48 -44 76 -25 32 20 33 68 2 89 -30 21 -44 20 -68 -4z"/>
</g>


</svg>