<?xml version="1.0" encoding="UTF-8" standalone="no"?>
<!-- Generator: Adobe Illustrator 21.0.2, SVG Export Plug-In . SVG Version: 6.00 Build 0)  -->

<svg
   xmlns:dc="http://purl.org/dc/elements/1.1/"
   xmlns:cc="http://creativecommons.org/ns#"
   xmlns:rdf="http://www.w3.org/1999/02/22-rdf-syntax-ns#"
   xmlns:svg="http://www.w3.org/2000/svg"
   xmlns="http://www.w3.org/2000/svg"
   xmlns:sodipodi="http://sodipodi.sourceforge.net/DTD/sodipodi-0.dtd"
   xmlns:inkscape="http://www.inkscape.org/namespaces/inkscape"
   version="1.1"
   id="Ebene_1"
   x="0px"
   y="0px"
   width="99"
   height="99"
   viewBox="0 0 99 99"
   enable-background="new 0 0 76 76"
   xml:space="preserve"
   inkscape:version="0.91 r13725"
   sodipodi:docname="logo Bayer.svg"
   inkscape:export-filename="V:\!_ALGOTECH\_Configuration\Logo\Logo2017.png"
   inkscape:export-xdpi="500"
   inkscape:export-ydpi="500"><metadata
   id="metadata4169"><rdf:RDF><cc:Work
       rdf:about=""><dc:format>image/svg+xml</dc:format><dc:type
         rdf:resource="http://purl.org/dc/dcmitype/StillImage" /><dc:title></dc:title></cc:Work></rdf:RDF></metadata><defs
   id="defs4167" /><sodipodi:namedview
   pagecolor="#ffffff"
   bordercolor="#666666"
   borderopacity="1"
   objecttolerance="10"
   gridtolerance="10"
   guidetolerance="10"
   inkscape:pageopacity="0"
   inkscape:pageshadow="2"
   inkscape:window-width="1076"
   inkscape:window-height="627"
   id="namedview4165"
   showgrid="false"
   fit-margin-top="0"
   fit-margin-left="0"
   fit-margin-right="0"
   fit-margin-bottom="0"
   inkscape:zoom="1.3865132"
   inkscape:cx="106.17023"
   inkscape:cy="-54.711738"
   inkscape:window-x="2530"
   inkscape:window-y="372"
   inkscape:window-maximized="0"
   inkscape:current-layer="Ebene_1" />
<g
   id="g4137"
   transform="scale(1.3026316,1.3026316)"
   inkscape:export-xdpi="500"
   inkscape:export-ydpi="500">
	<g
   id="g4139">
		<path
   d="m 35.744,11.29 4.379,0 C 40.606,11.29 41,10.897 41,10.414 41,9.932 40.606,9.538 40.123,9.538 l -4.379,0 0,1.752 z m 0,4.255 4.509,0 c 0.552,0 0.998,-0.448 0.998,-1.003 0,-0.553 -0.446,-1.001 -0.998,-1.001 l -4.509,0 0,2.004 z m 7.041,-3.225 c 0.595,0.58 0.964,1.389 0.964,2.286 0,1.759 -1.427,3.189 -3.187,3.192 l -7.322,0 0,-10.515 7.202,10e-4 c 1.69,0.003 3.059,1.375 3.059,3.066 0.001,0.75 -0.269,1.437 -0.716,1.97 z"
   id="path4141"
   inkscape:connector-curvature="0"
   style="fill:#00354f" />
		<path
   d="m 44.469,30.319 -2.687,0 -0.846,-1.752 -5.882,0 -0.847,1.752 -2.687,0 5.255,-10.511 2.437,0 5.257,10.511 z m -6.474,-7.822 -1.846,3.818 3.692,0 -1.846,-3.818 z"
   id="path4143"
   inkscape:connector-curvature="0"
   style="fill:#00354f" />
		<polygon
   points="31.413,32.572 34.424,32.572 37.995,37.359 41.565,32.572 44.577,32.572 39.247,39.416 39.247,43.084 36.743,43.084 36.743,39.416 "
   id="polygon4145"
   style="fill:#00354f" />
		<polygon
   points="55.502,32.572 55.502,34.825 48.494,34.825 48.494,36.577 55.251,36.576 55.251,38.828 48.494,38.828 48.494,40.831 55.502,40.831 55.502,43.084 45.991,43.084 45.991,32.572 "
   id="polygon4147"
   style="fill:#00354f" />
		<path
   d="m 63.234,39.079 -1.878,0 0,4.004 -2.503,0 0,-10.511 6.393,0 c 1.792,0.006 3.245,1.462 3.245,3.257 0,1.481 -0.98,2.73 -2.336,3.123 l 3.085,4.132 -3.004,0 -3.002,-4.005 z m 1.757,-4.254 -3.635,0 0,2.002 3.635,0 c 0.55,-0.003 0.994,-0.451 0.994,-1 0.001,-0.551 -0.444,-0.999 -0.994,-1.002 z"
   id="path4149"
   inkscape:connector-curvature="0"
   style="fill:#00354f" />
		<path
   d="m 32.581,43.084 -2.687,0 -0.846,-1.752 -5.882,0 -0.847,1.752 -2.686,0 5.255,-10.512 2.437,0 5.256,10.512 z m -6.474,-7.823 -1.847,3.818 3.692,0 -1.845,-3.818 z"
   id="path4151"
   inkscape:connector-curvature="0"
   style="fill:#00354f" />
		<path
   d="m 10.234,36.584 4.378,0 c 0.484,0 0.877,-0.393 0.877,-0.876 0,-0.483 -0.393,-0.876 -0.877,-0.876 l -4.378,0 0,1.752 z m 0,4.255 4.507,0 c 0.553,0 0.998,-0.449 0.998,-1.003 0,-0.552 -0.445,-1.001 -0.998,-1.001 l -4.508,0 0,2.004 z m 7.04,-3.225 c 0.595,0.58 0.965,1.39 0.965,2.286 0,1.76 -1.427,3.19 -3.186,3.193 l -7.323,0 0,-10.515 7.202,0 c 1.69,0.003 3.06,1.375 3.06,3.066 -0.001,0.75 -0.271,1.437 -0.718,1.97 z"
   id="path4153"
   inkscape:connector-curvature="0"
   style="fill:#00354f" />
		<polygon
   points="42.751,45.336 42.751,47.589 35.743,47.589 35.743,49.341 42.5,49.34 42.5,51.592 35.743,51.592 35.743,53.595 42.751,53.595 42.751,55.847 33.24,55.847 33.24,45.336 "
   id="polygon4155"
   style="fill:#00354f" />
		<path
   d="m 40.994,61.606 c 0,-0.551 -0.443,-0.997 -0.992,-1.002 l -4.26,0 0,2.001 4.26,0 c 0.55,-0.005 0.992,-0.452 0.992,-0.999 z m -7.754,7.256 0,-10.512 7.021,0 c 1.789,0.012 3.234,1.466 3.234,3.258 0,1.363 -0.836,2.531 -2.024,3.018 l 3.157,4.235 -3.004,0 -3.004,-4.003 -2.878,0 0,4.003 -2.502,0 z"
   id="path4157"
   inkscape:connector-curvature="0"
   style="fill:#00354f" />
	</g>
	<g
   id="g4159">
		<path
   d="M 75.925,35.646 C 74.709,15.756 58.196,0 38,0 17.804,0 1.291,15.756 0.075,35.646 c 0.049,0.798 0.12,1.589 0.218,2.373 0.821,6.616 3.343,12.703 7.114,17.813 6.92,9.377 18.046,15.46 30.594,15.46 C 20.435,71.292 6.005,57.617 4.794,40.355 4.738,39.576 4.708,38.792 4.708,38 c 0,-0.792 0.03,-1.576 0.084,-2.354 C 6.004,18.383 20.434,4.708 38,4.708 c 12.551,0 23.678,6.086 30.597,15.467 3.775,5.118 6.295,11.217 7.111,17.844 0.095,0.772 0.17,1.55 0.218,2.336 C 75.973,39.575 76,38.791 76,38 76,37.209 75.973,36.425 75.925,35.646"
   id="path4161"
   inkscape:connector-curvature="0"
   style="fill:#56d400" />
		<path
   d="M 0.075,40.354 C 1.291,60.244 17.804,76 38,76 58.196,76 74.709,60.244 75.925,40.354 75.876,39.556 75.805,38.765 75.707,37.981 74.886,31.365 72.364,25.278 68.593,20.168 61.674,10.791 50.548,4.708 38,4.708 c 17.565,0 31.996,13.675 33.208,30.937 0.054,0.778 0.084,1.563 0.084,2.354 0,0.792 -0.03,1.576 -0.084,2.354 C 69.996,57.617 55.566,71.292 38,71.292 25.449,71.292 14.322,65.206 7.403,55.825 3.628,50.707 1.108,44.608 0.292,37.982 0.197,37.21 0.122,36.432 0.074,35.646 0.027,36.425 0,37.209 0,38 c 0,0.791 0.027,1.575 0.075,2.354"
   id="path4163"
   inkscape:connector-curvature="0"
   style="fill:#00bdff" />
	</g>
</g>
<rect
   style="opacity:1;fill:#ffffff;fill-opacity:1;stroke:none;stroke-width:0.93800002;stroke-miterlimit:10;stroke-dasharray:none;stroke-opacity:1"
   id="rect4171"
   width="0"
   height="47.428997"
   x="-37.229214"
   y="39.331261" /></svg>