<svg width="99" height="65" viewBox="0 0 99 65" xmlns="http://www.w3.org/2000/svg" xmlns:xlink="http://www.w3.org/1999/xlink"><defs><path id="a" d="M.31.127h30.624V30.91H.31z"></path><path id="c" d="M0 64.122h98.979V.308H0z"></path></defs><g fill="none" fill-rule="evenodd"><path fill="#000" d="M0 30h98V0H0zM53.849 63.891H12.226C5.507 63.891.061 58.417.061 51.663v-5.866c0-6.753 5.446-12.228 12.165-12.228H53.85c6.718 0 12.165 5.475 12.165 12.228v5.866c0 6.754-5.447 12.228-12.165 12.228"></path><g transform="translate(68.045 33.212)"><mask id="b" fill="#fff"><use xlink:href="#a"></use></mask><path d="M30.934 15.518c0 8.501-6.856 15.392-15.312 15.392C7.165 30.91.31 24.019.31 15.518.31 7.018 7.165.127 15.622.127c8.456 0 15.312 6.89 15.312 15.391" fill="#76CA00" mask="url(#b)"></path></g><mask id="d" fill="#fff"><use xlink:href="#c"></use></mask><path fill="#FFF" mask="url(#d)" d="M15.375 54.777h3.117V40.658h-3.117zm11.825-3.34v-3.004c-.593-.675-1.243-.894-1.912-.894-1.263 0-2.2 1.074-2.2 2.406s.937 2.386 2.2 2.386c.669 0 1.319-.199 1.912-.894zm3.097-6.304v9.644H27.2v-.536c-.689.457-1.511.735-2.543.735-2.505 0-4.608-2.168-4.608-5.031 0-2.884 2.103-5.031 4.608-5.031 1.032 0 1.854.278 2.543.736v-.517h3.097zm8.873 4.832c0-1.313-.918-2.386-2.18-2.386-.669 0-1.338.219-1.912.895v3.022c.574.676 1.243.875 1.912.875 1.262 0 2.18-1.054 2.18-2.406m3.04 0c0 2.883-2.103 5.05-4.608 5.05-1.013 0-1.836-.277-2.524-.715v.477h-3.116V40.658h3.116v5.011c.688-.437 1.51-.715 2.524-.715 2.505 0 4.608 2.147 4.608 5.01m3.697 1.512c.134.835.784 1.233 1.778 1.233.803 0 1.32-.258 1.32-.696 0-.318-.268-.557-.842-.656L46.233 51c-1.588-.258-2.735-1.213-2.735-2.884 0-2.048 1.682-3.24 4.149-3.24 1.97 0 4.188.795 4.34 3.34h-2.772c-.058-.736-.746-1.114-1.568-1.114-.784 0-1.167.318-1.167.716 0 .319.23.637.976.776l1.72.298c1.741.338 2.907 1.133 2.907 2.864 0 2.227-1.874 3.32-4.36 3.32-2.409 0-4.378-1.053-4.57-3.619l2.754.02zM21.94 21.337c-1.204.398-1.892.478-2.81.478-2.237 0-3.729-1.71-3.729-4.315v-2.864h-1.816V11.87h1.816V8.59H18.5v3.28h3.155v2.765H18.5V17.4c0 .974.536 1.452 1.453 1.452.44 0 .957-.1 1.645-.239l.344 2.724zm4.076-5.647h3.67c-.171-1.094-.783-1.63-1.74-1.63-1.07 0-1.701.636-1.93 1.63m6.577 1.79h-6.596c.21.954.822 1.71 2.084 1.71.65 0 1.147-.259 1.414-.696h3.08c-.46 1.988-2.238 3.3-4.533 3.3-3.04 0-5.066-2.167-5.066-5.11 0-2.983 1.969-5.111 4.913-5.111 2.716 0 4.762 1.93 4.762 4.912 0 .378-.02.696-.058.994m3.928.736c.135.836.784 1.233 1.779 1.233.803 0 1.32-.258 1.32-.696 0-.318-.269-.557-.843-.656l-1.93-.358c-1.587-.259-2.735-1.213-2.735-2.883 0-2.049 1.683-3.242 4.15-3.242 1.97 0 4.187.795 4.34 3.341h-2.773c-.057-.736-.745-1.114-1.568-1.114-.784 0-1.166.319-1.166.716 0 .318.23.637.975.776l1.721.298c1.74.338 2.906 1.133 2.906 2.864 0 2.227-1.873 3.32-4.36 3.32-2.408 0-4.378-1.053-4.569-3.619l2.753.02zm15.485 3.122c-1.205.398-1.893.478-2.81.478-2.238 0-3.73-1.71-3.73-4.315v-2.864H43.65V11.87h1.817V8.59h3.097v3.28h3.155v2.765h-3.155V17.4c0 .974.536 1.452 1.453 1.452.44 0 .957-.1 1.645-.239l.344 2.724zm9.404-9.465v2.764h-3.27v6.88h-3.098v-6.88h-2.275v-2.764h2.275v-1.154c0-2.784 1.702-4.514 4.073-4.514.746 0 1.51.1 2.467.358l-.421 2.685c-.459-.1-1.013-.18-1.415-.18-.975 0-1.606.617-1.606 1.571v1.234h3.27zm1.304 9.644h3.098v-9.645h-3.098v9.645zm-.287-12.965c0-1.054.804-1.83 1.817-1.83.994 0 1.816.776 1.816 1.83 0 1.034-.822 1.81-1.816 1.81-1.013 0-1.817-.776-1.817-1.81zm11.351 6.224c-1.51.06-2.467.477-3.193 1.213v5.528h-3.116v-9.644h3.116v1.034c.822-.736 1.816-1.193 3.193-1.193v3.062zm3.758.915h3.671c-.172-1.094-.784-1.63-1.74-1.63-1.07 0-1.702.636-1.931 1.63m6.577 1.79h-6.596c.21.954.822 1.71 2.084 1.71.65 0 1.147-.259 1.415-.696h3.078c-.458 1.988-2.237 3.3-4.532 3.3-3.04 0-5.066-2.167-5.066-5.11 0-2.983 1.969-5.111 4.914-5.111 2.715 0 4.76 1.93 4.76 4.912 0 .378-.018.696-.057.994"></path></g></svg>